<?xml version="1.0" standalone="no"?>
<!DOCTYPE svg PUBLIC "-//W3C//DTD SVG 20010904//EN"
 "http://www.w3.org/TR/2001/REC-SVG-20010904/DTD/svg10.dtd">
<svg version="1.0" xmlns="http://www.w3.org/2000/svg"
 width="300.000000pt" height="300.000000pt" viewBox="0 0 300.000000 300.000000"
 preserveAspectRatio="xMidYMid meet">
<metadata>
Created by potrace 1.10, written by Peter Selinger 2001-2011
</metadata>
<g transform="translate(0.000000,300.000000) scale(0.100000,-0.100000)"
fill="#000000" stroke="none">
<path d="M1130 2982 c-25 -7 -74 -23 -110 -34 -36 -11 -93 -33 -128 -49 -35
-16 -65 -29 -68 -29 -8 0 -188 -111 -215 -134 -15 -11 -42 -32 -61 -46 -58
-42 -195 -182 -251 -255 -107 -141 -193 -301 -238 -444 -52 -167 -59 -203 -57
-331 l1 -125 8 100 c25 331 171 653 409 899 132 137 253 227 411 306 172 87
350 138 524 150 l110 7 -145 0 c-95 0 -160 -5 -190 -15z"/>
<path d="M1650 2990 c491 -34 963 -357 1192 -815 80 -158 133 -333 147 -480
l8 -80 2 102 c1 90 -3 115 -35 220 -126 416 -413 752 -799 937 -114 55 -113
54 -185 77 -135 42 -174 48 -305 47 l-130 -1 105 -7z"/>
<path d="M1402 2540 c-196 -52 -365 -190 -459 -377 -49 -96 -83 -194 -97 -275
l-7 -37 -59 5 -59 6 -12 -44 c-9 -33 -9 -50 1 -73 7 -18 12 -100 14 -207 2
-147 5 -181 19 -195 13 -15 16 -42 16 -138 -1 -204 33 -287 176 -431 94 -95
174 -143 290 -175 82 -23 320 -17 425 9 180 46 265 107 396 282 l68 91 39 -6
c35 -6 41 -4 78 34 46 50 125 206 138 276 17 93 -9 138 -66 113 l-27 -13 34
-5 c48 -7 49 -30 3 -55 -36 -19 -83 -76 -83 -99 0 -6 12 4 26 22 23 29 71 62
90 62 29 0 -88 -253 -137 -294 -42 -36 -65 -31 -62 14 l2 35 -17 -25 c-9 -14
-27 -35 -39 -48 -13 -13 -23 -27 -23 -32 0 -4 -4 -10 -8 -12 -5 -2 -28 -30
-52 -63 -92 -125 -173 -189 -293 -230 -143 -48 -367 -63 -486 -31 -181 47
-356 204 -422 377 -17 42 -22 86 -26 199 -4 108 -9 147 -19 153 -8 4 -14 17
-14 28 0 13 4 18 12 13 8 -5 9 -2 5 9 -4 10 -10 24 -14 34 -4 11 -3 14 5 9 7
-4 12 -13 12 -20 0 -16 48 -61 56 -53 4 3 21 -4 38 -17 44 -33 120 -56 185
-56 44 0 65 6 94 26 83 56 170 221 153 290 -17 64 -112 118 -290 164 -117 30
-148 27 -184 -14 -37 -42 -56 -116 -56 -223 0 -46 -3 -83 -7 -83 -12 0 -17 64
-12 158 4 63 1 101 -7 116 -6 13 -10 38 -8 57 3 33 5 34 48 37 68 4 83 23 128
154 22 65 36 116 32 113 -5 -3 -3 6 3 19 7 13 15 22 19 20 4 -3 5 3 1 13 -3
10 -3 15 1 11 4 -3 23 9 41 28 40 40 61 42 160 14 79 -23 289 -72 380 -90 33
-6 76 -15 95 -20 19 -5 110 -23 201 -39 319 -59 360 -78 380 -179 l7 -37 1 38
c2 54 -33 102 -96 132 -28 14 -120 38 -205 55 -234 47 -507 106 -668 145 -170
41 -191 42 -238 13 l-36 -22 31 45 c47 66 164 171 233 207 46 25 125 55 150
58 14 1 39 7 55 12 45 14 180 15 262 2 281 -44 527 -247 588 -487 26 -100 26
-247 0 -418 -11 -70 -56 -206 -71 -212 -8 -3 -12 -8 -10 -12 2 -3 -3 -15 -11
-26 -15 -19 -15 -18 -8 10 3 16 11 33 17 36 5 3 9 8 8 10 -1 2 1 24 4 49 4 25
3 97 -3 160 l-9 115 1 -140 c1 -101 -4 -154 -15 -190 -35 -113 -41 -135 -36
-141 4 -3 9 8 13 25 4 17 11 34 17 38 8 4 9 0 4 -13 -4 -10 -10 -31 -13 -46
-3 -15 -9 -26 -13 -23 -13 8 -22 -27 -10 -39 15 -15 24 0 54 88 14 44 34 89
45 100 49 55 96 361 80 524 -11 106 -23 151 -61 227 -87 176 -273 319 -493
381 -94 26 -302 28 -393 4z m-369 -786 c95 -24 182 -58 218 -87 33 -26 42 -57
28 -101 -16 -53 -28 -67 -35 -40 -3 11 -41 42 -88 72 -75 47 -89 52 -140 52
-79 0 -116 -21 -116 -64 0 -25 8 -43 31 -65 46 -46 55 -37 14 15 -19 26 -35
51 -35 55 0 11 54 39 75 39 17 0 20 -16 5 -25 -21 -13 -2 -115 22 -115 10 0
10 3 -2 35 -11 28 -4 75 11 75 5 0 9 -14 9 -31 0 -43 15 -65 52 -78 28 -10 36
-9 58 7 14 11 26 31 28 45 3 27 16 35 27 17 7 -12 -20 -67 -48 -97 -13 -14
-16 -23 -8 -23 16 0 48 36 65 73 12 27 13 27 30 8 18 -20 17 -22 -9 -68 -34
-59 -71 -100 -107 -119 -79 -41 -249 13 -309 98 -20 27 -24 47 -26 110 -2 89
20 183 50 216 27 29 72 29 200 -4z m47 -134 c12 -7 12 -12 2 -22 -14 -14 -42
-2 -50 20 -4 14 27 16 48 2z m78 -57 c4 -27 -30 -63 -60 -63 -23 0 -58 26 -58
44 1 16 60 44 90 42 18 -1 26 -8 28 -23z m-350 -147 c12 -20 15 -33 8 -30 -12
4 -46 55 -46 69 0 13 19 -6 38 -39z"/>
<path d="M883 1749 c11 -7 23 -7 35 0 14 9 11 10 -18 10 -29 0 -32 -1 -17 -10z"/>
<path d="M950 1746 c0 -2 7 -6 15 -10 8 -3 15 -1 15 4 0 6 -7 10 -15 10 -8 0
-15 -2 -15 -4z"/>
<path d="M990 1729 c0 -5 5 -7 10 -4 6 3 10 8 10 11 0 2 -4 4 -10 4 -5 0 -10
-5 -10 -11z"/>
<path d="M826 1694 c-4 -20 -5 -38 -2 -41 2 -3 8 11 12 31 3 21 4 39 1 42 -2
3 -8 -11 -11 -32z"/>
<path d="M1043 1717 c15 -6 27 -15 27 -20 0 -4 4 -6 9 -3 5 3 26 -2 47 -11 40
-17 47 -20 63 -22 5 0 23 -13 40 -27 24 -20 31 -22 31 -10 0 22 -33 41 -129
76 -76 28 -153 43 -88 17z"/>
<path d="M886 1664 c-5 -14 -4 -15 9 -4 17 14 19 20 6 20 -5 0 -12 -7 -15 -16z"/>
<path d="M839 1593 c-13 -16 -12 -17 4 -4 9 7 17 15 17 17 0 8 -8 3 -21 -13z"/>
<path d="M1022 1852 c-51 -3 -66 -22 -17 -22 28 0 142 -40 231 -81 76 -35 84
-36 84 -5 0 18 -12 32 -48 54 -76 47 -144 62 -250 54z m133 -28 c42 -6 157
-65 138 -71 -6 -2 -28 4 -50 13 -21 9 -43 18 -50 20 -7 1 -27 9 -44 18 -18 9
-40 16 -50 16 -10 0 -20 4 -24 9 -3 6 4 8 17 6 12 -3 40 -7 63 -11z"/>
<path d="M1642 1714 c-26 -18 -27 -27 -7 -48 12 -11 31 -13 90 -9 75 6 135 -7
289 -63 22 -7 42 -12 44 -9 18 17 -117 107 -193 130 -71 20 -193 20 -223 -1z
m213 -16 c33 -9 135 -62 135 -69 0 -4 -35 5 -77 18 -57 19 -102 26 -165 27
-88 1 -114 9 -88 27 15 10 158 7 195 -3z"/>
<path d="M1374 1666 c11 -9 29 -16 40 -16 28 0 8 17 -29 25 -29 6 -29 6 -11
-9z"/>
<path d="M1444 1651 c3 -5 17 -11 32 -14 18 -3 22 -1 15 6 -13 13 -54 20 -47
8z"/>
<path d="M1620 1599 c-72 -12 -89 -36 -106 -152 -11 -79 24 -214 65 -251 11
-10 18 -23 14 -29 -3 -5 -2 -7 4 -4 6 4 37 -3 69 -14 32 -12 93 -23 134 -24
71 -4 72 -4 20 4 -113 17 -132 22 -170 41 -21 11 -50 34 -63 52 -48 66 -73
230 -46 308 21 60 92 73 255 45 130 -22 216 -50 244 -80 29 -31 29 -74 -1
-171 -29 -96 -57 -141 -104 -171 -22 -14 -31 -22 -20 -18 11 4 29 10 40 12 52
11 122 177 121 282 -1 57 -4 65 -31 87 -63 50 -321 101 -425 83z"/>
<path d="M1635 1565 c-5 -2 -22 -6 -36 -9 -17 -4 -29 -14 -32 -28 -5 -20 -4
-21 6 -7 16 20 45 31 52 18 4 -5 10 -7 15 -4 26 16 280 -41 280 -64 0 -7 62
-33 67 -27 3 3 -46 39 -57 41 -5 1 -39 16 -80 34 -24 11 -24 11 7 8 18 -2 29
1 26 6 -3 5 -21 7 -39 5 -19 -2 -34 -1 -34 4 0 4 -15 5 -32 3 -27 -4 -29 -4
-13 5 15 7 5 9 -42 7 -33 -1 -59 1 -56 6 4 7 -13 8 -32 2z"/>
<path d="M1343 1523 c-56 -73 -67 -95 -52 -104 10 -6 8 -9 -8 -9 -15 0 -31
-13 -47 -37 -34 -52 -76 -89 -125 -109 -45 -18 -48 -38 -3 -24 45 13 82 32 77
40 -3 5 2 11 11 14 8 3 13 9 11 13 -5 10 29 43 37 36 9 -9 48 44 81 110 34 68
67 87 104 60 18 -12 21 -12 21 1 0 22 -28 46 -55 46 -15 0 -33 -13 -52 -37z
m57 17 c0 -5 -4 -10 -10 -10 -5 0 -10 5 -10 10 0 6 5 10 10 10 6 0 10 -4 10
-10z m-127 -155 c-3 -9 -8 -14 -10 -11 -3 3 -2 9 2 15 9 16 15 13 8 -4z"/>
<path d="M1965 1500 c27 -12 43 -12 25 0 -8 5 -22 9 -30 9 -10 0 -8 -3 5 -9z"/>
<path d="M1454 1477 c3 -10 9 -44 12 -75 3 -31 8 -60 10 -63 2 -4 6 -24 10
-45 11 -74 59 -152 115 -188 21 -13 116 -47 134 -47 2 0 24 -7 47 -15 53 -18
106 -26 112 -15 3 4 0 8 -7 9 -30 2 -124 21 -147 30 -14 5 -29 11 -35 12 -19
6 -60 25 -102 49 -56 32 -95 114 -116 238 -9 51 -21 100 -27 110 -11 17 -11
17 -6 0z"/>
<path d="M1640 1459 c-54 -24 -80 -46 -80 -69 0 -18 46 -67 55 -58 3 2 -4 13
-15 23 -26 23 -25 37 3 63 31 29 38 28 31 -8 -8 -38 2 -76 21 -84 13 -4 14 -2
5 14 -13 24 -13 100 0 100 9 0 15 -22 11 -43 -1 -8 45 1 72 15 9 5 17 13 17
17 0 5 7 11 15 15 10 3 20 -5 31 -26 15 -29 15 -32 -4 -57 -31 -42 -95 -41
-112 2 -6 14 -9 17 -9 6 -2 -32 45 -56 99 -51 31 4 69 102 40 102 -5 0 -10 7
-10 16 0 11 5 14 16 10 9 -3 18 -6 20 -6 13 0 1 -90 -16 -118 -25 -40 -6 -38
24 2 13 17 20 41 20 66 -1 35 1 38 17 29 10 -5 34 -25 52 -44 34 -35 47 -42
47 -26 0 13 -61 71 -90 86 -30 15 -160 45 -192 44 -13 0 -43 -9 -68 -20z m100
-14 c0 -21 -27 -30 -45 -15 -23 19 -18 30 15 30 20 0 30 -5 30 -15z"/>
<path d="M1 1344 c-1 -127 9 -183 62 -344 25 -76 99 -235 139 -300 152 -245
404 -468 654 -581 96 -43 181 -77 209 -85 90 -24 173 -34 268 -32 l112 1 -105
8 c-236 16 -521 127 -730 283 -106 80 -279 258 -344 355 -148 222 -237 471
-255 716 l-8 100 -2 -121z"/>
<path d="M770 1370 c0 -5 5 -10 11 -10 5 0 7 5 4 10 -3 6 -8 10 -11 10 -2 0
-4 -4 -4 -10z"/>
<path d="M2992 1332 c-5 -127 -71 -351 -147 -504 -139 -278 -385 -527 -652
-662 -176 -88 -363 -144 -528 -156 l-100 -8 128 0 c106 0 140 4 205 24 42 13
86 26 97 27 27 5 65 21 155 65 41 20 77 36 80 37 3 0 32 18 65 39 351 226 567
516 684 913 17 58 21 93 18 175 -1 57 -4 79 -5 50z"/>
<path d="M806 1320 c10 -16 20 -27 22 -25 3 3 0 11 -6 18 -7 8 -9 16 -6 19 2
3 -2 8 -11 12 -14 5 -14 2 1 -24z"/>
<path d="M1903 1306 c-64 -27 -79 -41 -34 -31 45 10 98 32 106 45 9 15 -14 11
-72 -14z"/>
<path d="M2104 1284 c-3 -10 -9 -28 -14 -40 -6 -15 -4 -21 6 -21 8 0 16 15 20
34 7 37 -2 57 -12 27z"/>
<path d="M1236 1260 c-36 -43 -42 -75 -22 -117 35 -74 172 -97 222 -37 26 33
31 85 10 103 -12 10 -13 9 -9 -8 7 -28 -16 -76 -47 -94 -47 -28 -137 0 -159
50 -17 37 -13 59 15 93 15 17 24 33 21 36 -2 3 -16 -9 -31 -26z"/>
<path d="M880 1269 c0 -6 8 -9 18 -7 9 1 24 -1 32 -6 12 -7 13 -6 3 4 -16 17
-53 23 -53 9z"/>
<path d="M1015 1250 c3 -5 15 -10 26 -10 11 0 17 5 14 10 -3 6 -15 10 -26 10
-11 0 -17 -4 -14 -10z"/>
<path d="M2027 1140 c-16 -16 -27 -35 -25 -41 2 -6 16 7 31 30 15 22 26 41 25
41 -2 0 -16 -13 -31 -30z"/>
<path d="M1630 1140 c8 -5 20 -10 25 -10 6 0 3 5 -5 10 -8 5 -19 10 -25 10 -5
0 -3 -5 5 -10z"/>
<path d="M1680 1122 c8 -6 50 -16 92 -22 63 -10 87 -10 125 1 56 15 44 24 -16
10 -39 -8 -135 -1 -196 15 -16 4 -17 3 -5 -4z"/>
<path d="M1985 1071 c-3 -5 0 -13 6 -17 7 -4 9 -3 5 4 -3 5 0 13 6 15 9 4 10
6 1 6 -6 1 -14 -3 -18 -8z"/>
<path d="M1955 1040 c3 -5 8 -10 11 -10 2 0 4 5 4 10 0 6 -5 10 -11 10 -5 0
-7 -4 -4 -10z"/>
<path d="M1100 998 c0 -4 12 -10 28 -14 15 -3 61 -14 102 -25 79 -19 256 -49
290 -49 11 0 20 5 20 10 0 6 -11 10 -25 10 -13 0 -49 7 -80 15 -31 8 -62 12
-70 8 -8 -3 -15 0 -15 5 0 6 -12 9 -26 6 -16 -3 -23 -1 -19 6 3 5 0 7 -9 4 -8
-3 -31 0 -53 6 -52 17 -143 28 -143 18z"/>
<path d="M1175 906 c45 -30 135 -51 205 -46 24 2 13 5 -35 11 -38 5 -94 18
-123 29 -62 23 -74 25 -47 6z"/>
</g>
</svg>
